<?xml version="1.0" encoding="utf-8"?>
<!-- Generator: Adobe Illustrator 27.1.0, SVG Export Plug-In . SVG Version: 6.00 Build 0)  -->
<svg version="1.1" id="Layer_1" xmlns="http://www.w3.org/2000/svg" xmlns:xlink="http://www.w3.org/1999/xlink" x="0px" y="0px"
	 viewBox="0 0 612 792" style="enable-background:new 0 0 612 792;" xml:space="preserve">
<path d="M454.48,198.77v121.75c0,5.31-4.31,9.61-9.61,9.61s-9.61-4.31-9.61-9.61V198.77c0-3.68,2.06-6.88,5.11-8.48
	c1.35-0.72,2.87-1.13,4.5-1.13C450.18,189.16,454.48,193.47,454.48,198.77z"/>
<polygon points="341.32,189.78 312.03,219.08 197.51,333.61 197.51,271.01 249.43,219.08 278.72,189.78 "/>
<path d="M467.08,282.24c-1.01-3.6-3.63-6-6.59-6.48l1.48-0.59c4.23-1.68,6.52-7.12,5.11-12.16c-1.41-5.04-5.99-7.76-10.22-6.08
	l-29.08,11.53c-4.23,1.68-6.52,7.12-5.11,12.16c1.01,3.6,3.64,6,6.6,6.48l-1.49,0.59c-4.23,1.68-6.52,7.12-5.11,12.16
	c1.01,3.6,3.64,6,6.6,6.48l-1.49,0.59c-4.23,1.68-6.52,7.12-5.11,12.16c1.13,4.03,4.28,6.58,7.66,6.58c0.85,0,1.71-0.16,2.56-0.5
	l29.08-11.53c4.23-1.68,6.52-7.12,5.11-12.16c-1.01-3.6-3.63-6-6.59-6.48l1.48-0.59C466.2,292.72,468.49,287.28,467.08,282.24z"/>
<g>
	<polygon points="177.64,138.54 174.23,138.54 100.12,138.54 100.12,198.77 174.23,198.77 177.64,198.77 253.39,198.77 
		314.4,198.77 439.76,198.77 489.73,198.77 489.73,138.54 	"/>
	<polygon points="206.5,324.63 206.5,615.29 146.26,615.29 146.26,198.77 146.26,138.54 146.26,112.91 206.5,112.91 206.5,138.54 
		206.5,198.77 206.5,269.85 	"/>
</g>
</svg>
