<?xml version="1.0" encoding="utf-8"?>
<!-- Generator: Adobe Illustrator 27.1.0, SVG Export Plug-In . SVG Version: 6.00 Build 0)  -->
<svg version="1.1" id="Layer_2_00000066498817916182935860000017737498497243078826_"
	 xmlns="http://www.w3.org/2000/svg" xmlns:xlink="http://www.w3.org/1999/xlink" x="0px" y="0px" viewBox="0 0 432.4 426"
	 style="enable-background:new 0 0 432.4 426;" xml:space="preserve">
<style type="text/css">
	.st0{fill:#171717;}
	.st1{fill:#FFFFFF;stroke:#231F20;stroke-miterlimit:10;}
</style>
<path class="st0" d="M340.3,72.8V176c0,4.5-4,8.1-8.9,8.1s-8.9-3.6-8.9-8.1V72.8c0-3.1,1.9-5.8,4.7-7.2c1.2-0.6,2.7-1,4.2-1
	C336.4,64.7,340.3,68.3,340.3,72.8L340.3,72.8z"/>
<polygon class="st0" points="223.5,65.2 196.4,90 90.2,187.1 90.2,134.1 138.3,90 165.5,65.2 "/>
<polygon class="st0" points="86,21.7 82.2,21.7 0,21.7 0,72.8 82.2,72.8 86,72.8 170.1,72.8 237.8,72.8 376.9,72.8 432.4,72.8 
	432.4,21.7 "/>
<polygon class="st0" points="98.6,179.5 98.6,426 42.8,426 42.8,72.8 42.8,21.7 42.8,0 98.6,0 98.6,21.7 98.6,72.8 98.6,133.1 "/>
<g>
	<g>
		<path class="st1" d="M339.8,159.1c-25.2,0-45.7,14.1-45.7,31.4V363h91.4V190.5C385.5,173.2,365.1,159.1,339.8,159.1L339.8,159.1
			L339.8,159.1z"/>
		<path class="st1" d="M331.6,159.7c-2.9-0.4-5.9-0.6-9-0.6c-25.2,0-45.7,14.1-45.7,31.4V363h17.9V190.5
			C294.9,175.3,310.7,162.6,331.6,159.7L331.6,159.7L331.6,159.7z"/>
	</g>
	<path class="st1" d="M313.6,193c14.7-3.4,21.6-6.7,21.4-3.4"/>
	<path class="st1" d="M346,188.3c18.5,7,23-3.8,18.5,7"/>
	<ellipse class="st1" cx="355.5" cy="200.1" rx="3.2" ry="3.2"/>
	<path class="st1" d="M318,242.5c0,0,20.9-19.2,45.7-9.2"/>
	<ellipse class="st1" cx="327" cy="200.1" rx="3.6" ry="4.3"/>
</g>
</svg>
