<?xml version="1.0" encoding="utf-8"?>
<!-- Generator: Adobe Illustrator 27.1.0, SVG Export Plug-In . SVG Version: 6.00 Build 0)  -->
<svg version="1.1" id="Layer_2_00000042729173215301999160000007172690580885214627_"
	 xmlns="http://www.w3.org/2000/svg" xmlns:xlink="http://www.w3.org/1999/xlink" x="0px" y="0px" viewBox="0 0 432.4 426"
	 style="enable-background:new 0 0 432.4 426;" xml:space="preserve">
<style type="text/css">
	.st0{fill:#171717;}
	.st1{fill:#FFFFFF;stroke:#000000;stroke-miterlimit:10;}
	.st2{fill:#FFFFFF;stroke:#231F20;stroke-miterlimit:10;}
	.st3{fill:none;stroke:#231F20;stroke-miterlimit:10;}
	.st4{fill:#020202;stroke:#020202;stroke-miterlimit:10;}
</style>
<path class="st0" d="M340.3,72.8V176c0,4.5-4,8.1-8.9,8.1s-8.9-3.6-8.9-8.1V72.8c0-3.1,1.9-5.8,4.7-7.2c1.2-0.6,2.7-1,4.2-1
	C336.4,64.7,340.3,68.3,340.3,72.8L340.3,72.8L340.3,72.8z"/>
<path class="st1" d="M426,315.5c-1.5-2.2-4.5-2.8-6.7-1.3l-0.1,0.1L385.3,263v-72.8c0-17.3-20.5-31.4-45.7-31.4S294,172.9,294,190.2
	v127.1c0.5,2.1,1,4.1,1.5,6.2c0.1-0.1,0.2-0.3,0.3-0.4c-1-4-1.6-8.7,1.3-11.5c1-0.9,2.2-1.5,3.3-2.4c2.7-2.4,3.2-6.4,3.2-10
	c0-0.8,0-1.7,0.7-2.1c1.1-0.8,2.6,0.7,4,0.7c1.4,0,2.3-1.3,2.8-2.6s0.8-2.7,1.8-3.6c1.5-1.2,3.7-0.7,5.5,0c2.1,0.8,4.3,1.9,5.4,3.9
	c1,1.7,1,3.8,1.6,5.7s2.3,3.8,4.2,3.4c0.7-0.1,1.3-0.6,1.9-1c1.4-1.1,2.6-2.5,3.5-4c0.3-0.5,0.7-1.1,1.2-1.5c0.6-0.4,1.3-0.4,2-0.4
	c2.3,0,4.6-0.1,6.9-0.1c1.4,0,2.9,0,4,0.7c3.3,2.1,1.4,7.7,3.9,10.7c0.9-1.6,2.2-3,3.9-3.5c1.7-0.6,3.8-0.2,5,1.2
	c1.1,1.3,1.3,3,1.7,4.6s1.5,3.3,3.1,3.5c1.8,0.1,3.2-1.7,5-2.1c1.3-0.3,2.6,0.2,3.8,0.8c3,1.4,5.8,3.3,7.7,6
	c0.8,1.1,1.5,2.4,1.9,3.8c0.1,0,0.2-0.1,0.3-0.2V280l26,39.4c0,0-0.1,0-0.1,0.1c-2.2,1.5-2.9,4.5-1.4,6.7s4.5,2.8,6.7,1.3
	c1.5,2.2,4.5,2.8,6.7,1.3c2.2-1.5,2.9-4.5,1.4-6.7C426.8,320.7,427.5,317.7,426,315.5z"/>
<polygon class="st0" points="223.5,65.2 196.4,90 90.2,187.1 90.2,134.1 138.3,90 165.5,65.2 "/>
<polygon class="st0" points="86,21.7 82.2,21.7 0,21.7 0,72.8 82.2,72.8 86,72.8 170.1,72.8 237.8,72.8 376.9,72.8 432.4,72.8 
	432.4,21.7 "/>
<polygon class="st0" points="98.6,179.5 98.6,426 42.8,426 42.8,72.8 42.8,21.7 42.8,0 98.6,0 98.6,21.7 98.6,72.8 98.6,133.1 "/>
<g>
	<polygon class="st2" points="322.5,158.9 322.5,158.9 322.5,158.9 	"/>
	<path class="st2" d="M252.1,322C252,322,252,322,252.1,322l24.8-39.2v42.7h17.9V190.2c0-15.2,15.8-27.8,36.8-30.7
		c-3.1-0.4-6.1-0.6-9.1-0.6c-25.2,0-45.7,14.1-45.7,31.3v75.2L244,316.9l-0.1-0.1c-2.3-1.4-5.2-0.8-6.7,1.4
		c-1.4,2.2-0.7,5.2,1.5,6.6c-1.4,2.2-0.7,5.2,1.5,6.6c2.3,1.4,5.2,0.8,6.7-1.4c2.3,1.4,5.2,0.8,6.7-1.4
		C255,326.4,254.3,323.4,252.1,322z"/>
</g>
<rect x="269.8" y="337.3" transform="matrix(0.152 -0.9884 0.9884 0.152 -102.5182 572.9398)" class="st2" width="25.7" height="17.9"/>
<polygon class="st2" points="157.1,171.1 157.1,171.1 157.1,171.1 "/>
<path class="st3" d="M351.4,189.7c0,0,4.1-6.1,18.1,0.6"/>
<path class="st3" d="M334.1,189.3c0,0-4.1-6.1-18.1,0.6"/>
<path class="st2" d="M327.2,224.9c0,0,12.5-18.8,36.6-1.6"/>
<g>
	<line class="st4" x1="320.8" y1="193.5" x2="329.3" y2="204.4"/>
	<line class="st4" x1="329.3" y1="193.5" x2="320.8" y2="204.4"/>
</g>
<g>
	<line class="st4" x1="358.3" y1="195.7" x2="362.5" y2="201"/>
	<line class="st4" x1="362.5" y1="195.7" x2="358.3" y2="201"/>
</g>
<path class="st1" d="M374.2,351.6c-2.4,0.1-4.8-0.4-7,0.3c-0.6,0.2-1.3,0.5-2,0.5c-1.5,0-2.4-1.6-3.6-2.5c-1.6-1.2-3.8-1.2-5.9-1.1
	c-4.2,0.1-8.5,0-12.6-0.7c-2.5-0.4-5.3-0.9-7.5,0.5c-0.4,0.3-0.8,0.7-1.4,0.8c-0.8,0.2-1.6-0.3-2.3-0.8c-2.1-1.6-4.8-3.3-7.2-2.2
	c-1.2,0.6-2,1.7-3.1,2.5c-1.1,0.8-2.8,1.2-3.6,0.1c-0.2-0.3-0.3-0.6-0.5-0.9c-1.1-1.6-3.6-0.9-5.4,0c-1.7,0.9-4.1,1.9-5.5,0.5
	c-1-0.9-0.9-2.4-0.9-3.8c0-1.7-0.1-3.4-0.3-5c0-0.3-0.1-0.7-0.4-0.9c-0.3-0.2-0.6-0.2-1-0.2c-2.7,0.2-5.4,1.2-7.6,2.7
	c-1-2.1-1.8-4.3-2.4-6.5l-2-0.3l-3.9,25.3l16.5,2.5l-3.9,25.3c-3.3-0.5-6.3,1.4-6.7,4.2c-0.4,2.8,1.9,5.6,5.1,6.1l11.3,1.7l5.5-35.6
	l29.2,4.5l-5.5,35.6l11.3,1.7c3.3,0.5,6.3-1.4,6.7-4.2s-1.9-5.6-5.1-6.1l3.9-25.3l22,3.4l3.9-25.3l-0.2,0
	C380,350.4,377.1,351.5,374.2,351.6z"/>
</svg>
