<?xml version="1.0" encoding="utf-8"?>
<!-- Generator: Adobe Illustrator 27.1.0, SVG Export Plug-In . SVG Version: 6.00 Build 0)  -->
<svg version="1.1" id="Layer_2_00000063615006672327785130000016706488959512367283_"
	 xmlns="http://www.w3.org/2000/svg" xmlns:xlink="http://www.w3.org/1999/xlink" x="0px" y="0px" viewBox="0 0 432.4 426"
	 style="enable-background:new 0 0 432.4 426;" xml:space="preserve">
<style type="text/css">
	.st0{fill:#171717;}
	.st1{fill:#FFFFFF;stroke:#231F20;stroke-miterlimit:10;}
	.st2{fill:none;stroke:#231F20;stroke-miterlimit:10;}
</style>
<path class="st0" d="M340.3,72.8V176c0,4.5-4,8.1-8.9,8.1s-8.9-3.6-8.9-8.1V72.8c0-3.1,1.9-5.8,4.7-7.2c1.2-0.6,2.7-1,4.2-1
	C336.4,64.7,340.3,68.3,340.3,72.8L340.3,72.8z"/>
<polygon class="st0" points="223.5,65.2 196.4,90 90.2,187.1 90.2,134.1 138.3,90 165.5,65.2 "/>
<polygon class="st0" points="86,21.7 82.2,21.7 0,21.7 0,72.8 82.2,72.8 86,72.8 170.1,72.8 237.8,72.8 376.9,72.8 432.4,72.8 
	432.4,21.7 "/>
<polygon class="st0" points="98.6,179.5 98.6,426 42.8,426 42.8,72.8 42.8,21.7 42.8,0 98.6,0 98.6,21.7 98.6,72.8 98.6,133.1 "/>
<g>
	<g>
		<path class="st1" d="M339.8,159.1c-25.2,0-45.7,14.1-45.7,31.4V363h91.4V190.5C385.5,173.2,365.1,159.1,339.8,159.1L339.8,159.1
			L339.8,159.1z"/>
		<path class="st1" d="M331.6,159.7c-2.9-0.4-5.9-0.6-9-0.6c-25.2,0-45.7,14.1-45.7,31.4V363h17.9V190.5
			C294.9,175.3,310.7,162.6,331.6,159.7L331.6,159.7L331.6,159.7z"/>
	</g>
	<path class="st1" d="M313.6,193c14.7-3.4,21.6-6.7,21.4-3.4"/>
	<path class="st1" d="M346,188.3c18.5,7,23-3.8,18.5,7"/>
	<ellipse class="st1" cx="355.5" cy="200.1" rx="3.2" ry="3.2"/>
	<path class="st1" d="M318,242.5c0,0,20.9-19.2,45.7-9.2"/>
	<ellipse class="st1" cx="327" cy="200.1" rx="3.6" ry="4.3"/>
</g>
<g>
	<g>
		<path class="st1" d="M339.9,159.1c-25.2,0-45.7,14.1-45.7,31.4V363h91.4V190.5C385.6,173.2,365.2,159.1,339.9,159.1L339.9,159.1
			L339.9,159.1z"/>
		<path class="st1" d="M331.7,159.7c-2.9-0.4-5.9-0.6-9-0.6c-25.2,0-45.7,14.1-45.7,31.4V363H295V190.5
			C295,175.3,310.8,162.6,331.7,159.7L331.7,159.7L331.7,159.7z"/>
	</g>
	<path class="st1" d="M313.6,193c14.7-3.4,21.6-6.7,21.4-3.4"/>
	<path class="st1" d="M346.1,188.3c18.5,7,23-3.8,18.5,7"/>
	<ellipse class="st1" cx="355.5" cy="200.1" rx="3.2" ry="3.2"/>
	<path class="st1" d="M318,242.5c0,0,20.9-19.2,45.7-9.2"/>
	<ellipse class="st1" cx="327" cy="200.1" rx="3.6" ry="4.3"/>
</g>
<path class="st2" d="M340.1,159.1c-25.2,0-45.7,14.1-45.7,31.4V363h91.4V190.5C385.8,173.2,365.3,159.1,340.1,159.1L340.1,159.1
	L340.1,159.1z"/>
<path class="st1" d="M313.8,193c14.7-3.4,21.6-6.7,21.4-3.4"/>
<path class="st1" d="M346.3,188.3c18.5,7,23-3.8,18.5,7"/>
<ellipse class="st1" cx="355.7" cy="200.1" rx="3.2" ry="3.2"/>
<path class="st1" d="M318.2,242.5c0,0,20.9-19.2,45.7-9.2"/>
<ellipse class="st1" cx="327.2" cy="200.1" rx="3.6" ry="4.3"/>
<path class="st1" d="M322.9,159.1c-25.2,0-45.7,14.1-45.7,31.4V266l-32.8,51.8c0,0-0.1-0.1-0.1-0.1c-2.3-1.4-5.2-0.8-6.7,1.4
	c-1.4,2.2-0.7,5.2,1.5,6.6c-1.4,2.2-0.7,5.2,1.5,6.6c2.3,1.4,5.2,0.8,6.7-1.4c2.3,1.4,5.2,0.8,6.7-1.4c1.4-2.2,0.7-5.2-1.5-6.6
	c-0.1,0-0.1,0-0.1-0.1l24.9-39.2V363h17.9V190.5c0-15.2,15.8-27.9,36.8-30.8C329,159.4,326,159.1,322.9,159.1L322.9,159.1
	L322.9,159.1z"/>
<path class="st1" d="M426,315.5c-1.5-2.2-4.5-2.8-6.7-1.3c0,0-0.1,0.1-0.1,0.1L385.3,263v-72.8c0-17.3-20.5-31.4-45.7-31.4
	S294,172.9,294,190.2v172.4h91.4v-82.6l26,39.4c0,0-0.1,0-0.1,0.1c-2.2,1.5-2.9,4.5-1.4,6.7c1.5,2.2,4.5,2.8,6.7,1.3
	c1.5,2.2,4.5,2.8,6.7,1.3s2.9-4.5,1.4-6.7C426.8,320.7,427.5,317.7,426,315.5L426,315.5L426,315.5z"/>
<path class="st1" d="M313.4,192.8c14.7-3.4,21.6-6.7,21.4-3.4"/>
<path class="st1" d="M345.8,188c18.5,7,23-3.8,18.5,7"/>
<ellipse class="st1" cx="355.3" cy="199.9" rx="3.2" ry="3.2"/>
<path class="st1" d="M317.8,242.2c0,0,20.9-19.2,45.7-9.2"/>
<ellipse class="st1" cx="326.8" cy="199.9" rx="3.6" ry="4.3"/>
<path class="st1" d="M322.5,158.9c-25.2,0-45.7,14.1-45.7,31.4v75.4L244,317.4c0,0-0.1-0.1-0.1-0.1c-2.3-1.4-5.2-0.8-6.7,1.4
	c-1.4,2.2-0.7,5.2,1.5,6.6c-1.4,2.2-0.7,5.2,1.5,6.6c2.3,1.4,5.2,0.8,6.7-1.4c2.3,1.4,5.2,0.8,6.7-1.4c1.4-2.2,0.7-5.2-1.5-6.6
	c-0.1,0-0.1,0-0.1-0.1l24.9-39.2v79.5h17.9V190.3c0-15.2,15.8-27.9,36.8-30.8C328.5,159.1,325.5,158.9,322.5,158.9L322.5,158.9
	L322.5,158.9z"/>
</svg>
