<?xml version="1.0" encoding="UTF-8"?>
<svg id="Layer_2" data-name="Layer 2" xmlns="http://www.w3.org/2000/svg" viewBox="0 0 432.4 426">
  <defs>
    <style>
      .cls-1 {
        stroke: #231f20;
      }

      .cls-1, .cls-2 {
        fill: #fff;
        stroke-miterlimit: 10;
      }

      .cls-3 {
        fill: #171717;
      }

      .cls-2 {
        stroke: #000;
      }
    </style>
  </defs>
  <g id="Layer_2-2" data-name="Layer 2">
    <path class="cls-3" d="m340.3,72.8v103.2c0,4.5-4,8.1-8.9,8.1s-8.9-3.6-8.9-8.1v-103.2c0-3.1,1.9-5.8,4.7-7.2,1.2-.6,2.7-1,4.2-1,5,.1,8.9,3.7,8.9,8.2h0Z"/>
    <path class="cls-2" d="m426,315.5c-1.5-2.2-4.5-2.8-6.7-1.3l-.1.1-33.9-51.3v-72.8c0-17.3-20.5-31.4-45.7-31.4s-45.6,14.1-45.6,31.4v172.4h16.66v25.62c-3.31,0-6,2.34-6,5.22s2.69,5.22,6,5.22h11.48v-36.05h63.26v-82.6l26,39.4s-.1,0-.1.1c-2.2,1.5-2.9,4.5-1.4,6.7s4.5,2.8,6.7,1.3c1.5,2.2,4.5,2.8,6.7,1.3s2.9-4.5,1.4-6.7c2.1-1.4,2.8-4.4,1.3-6.6Z"/>
    <polygon class="cls-3" points="223.5 65.2 196.4 90 90.2 187.1 90.2 134.1 138.3 90 165.5 65.2 223.5 65.2"/>
    <polygon class="cls-3" points="86 21.7 82.2 21.7 0 21.7 0 72.8 82.2 72.8 86 72.8 170.1 72.8 237.8 72.8 376.9 72.8 432.4 72.8 432.4 21.7 86 21.7"/>
    <polygon class="cls-3" points="98.6 179.5 98.6 426 42.8 426 42.8 72.8 42.8 21.7 42.8 0 98.6 0 98.6 21.7 98.6 72.8 98.6 133.1 98.6 179.5"/>
    <path class="cls-1" d="m313.8,193c14.7-3.4,21.6-6.7,21.4-3.4"/>
    <path class="cls-1" d="m346.3,188.3c18.5,7,23-3.8,18.5,7"/>
    <circle class="cls-1" cx="355.7" cy="200.1" r="3.2"/>
    <path class="cls-1" d="m318.2,242.5s20.9-19.2,45.7-9.2"/>
    <ellipse class="cls-1" cx="327.2" cy="200.1" rx="3.6" ry="4.3"/>
    <path class="cls-1" d="m322.9,159.1c-25.2,0-45.7,14.1-45.7,31.4v75.5l-32.8,51.8-.1-.1c-2.3-1.4-5.2-.8-6.7,1.4-1.4,2.2-.7,5.2,1.5,6.6-1.4,2.2-.7,5.2,1.5,6.6,2.3,1.4,5.2.8,6.7-1.4,2.3,1.4,5.2.8,6.7-1.4,1.4-2.2.7-5.2-1.5-6.6q-.1,0-.1-.1l24.9-39.2v79.4h17.9v-172.5c0-15.2,15.8-27.9,36.8-30.8-3-.3-6-.6-9.1-.6h0Z"/>
    <path class="cls-1" d="m313.4,192.8c14.7-3.4,21.6-6.7,21.4-3.4"/>
    <path class="cls-1" d="m345.8,188c18.5,7,23-3.8,18.5,7"/>
    <circle class="cls-1" cx="355.3" cy="199.9" r="3.2"/>
    <path class="cls-1" d="m317.8,242.2s20.9-19.2,45.7-9.2"/>
    <ellipse class="cls-1" cx="326.8" cy="199.9" rx="3.6" ry="4.3"/>
    <path class="cls-1" d="m322.5,158.9c-25.2,0-45.7,14.1-45.7,31.4v75.4l-32.8,51.7-.1-.1c-2.3-1.4-5.2-.8-6.7,1.4-1.4,2.2-.7,5.2,1.5,6.6-1.4,2.2-.7,5.2,1.5,6.6,2.3,1.4,5.2.8,6.7-1.4,2.3,1.4,5.2.8,6.7-1.4,1.4-2.2.7-5.2-1.5-6.6q-.1,0-.1-.1l24.9-39.2v79.5h17.9v-172.4c0-15.2,15.8-27.9,36.8-30.8-3.1-.4-6.1-.6-9.1-.6h0Z"/>
  </g>
</svg>