<?xml version="1.0" encoding="utf-8"?>
<!-- Generator: Adobe Illustrator 27.1.0, SVG Export Plug-In . SVG Version: 6.00 Build 0)  -->
<svg version="1.1" id="Layer_1" xmlns="http://www.w3.org/2000/svg" xmlns:xlink="http://www.w3.org/1999/xlink" x="0px" y="0px"
	 viewBox="0 0 612 792" style="enable-background:new 0 0 612 792;" xml:space="preserve">
<style type="text/css">
	.st0{fill:#FFFFFF;stroke:#000000;stroke-miterlimit:10;}
	.st1{fill:none;stroke:#000000;stroke-miterlimit:10;}
</style>
<path d="M454.48,198.77v121.75c0,5.31-4.31,9.61-9.61,9.61s-9.61-4.31-9.61-9.61V198.77c0-3.68,2.06-6.88,5.11-8.48
	c1.35-0.72,2.87-1.13,4.5-1.13C450.18,189.16,454.48,193.47,454.48,198.77z"/>
<path class="st0" d="M543.4,440.94c-0.41-0.93-1.07-1.67-1.85-2.23c1.39-1.67,1.85-3.96,0.95-5.99c-1.29-2.91-4.84-4.17-7.92-2.8
	c-1.14,0.5-2.03,1.3-2.67,2.24l-27.13-34.49V336.5c0-31.02-21.86-56.18-48.83-56.18c-3.77,0-7.44,0.49-10.96,1.42
	c-21.69,5.72-37.87,28.07-37.87,54.76v153.77h14.41l-10.1,30.35l-2.65,0.75l12.49,43.97c-0.04,0.01-0.08,0.02-0.12,0.03
	c-8.35,2.37-14.61,6.08-13.99,8.28c0.63,2.2,7.9,2.07,16.25-0.31c0.04-0.01,0.08-0.02,0.12-0.04l0,0l15-4.26l-14.75-51.94
	l-0.81,0.23l9.01-27.07h72.79v-81.18l22.71,28.87c-2.39,1.6-3.41,4.62-2.27,7.2c1.29,2.91,4.84,4.17,7.92,2.8
	c0.15-0.07,0.27-0.16,0.41-0.23c1.69,1.53,4.27,1.99,6.59,0.96C543.24,447.32,544.69,443.85,543.4,440.94z"/>
<polygon points="341.32,189.78 312.03,219.08 197.51,333.61 197.51,271.01 249.43,219.08 278.72,189.78 "/>
<g>
	<polygon points="177.64,138.54 174.23,138.54 100.12,138.54 100.12,198.77 174.23,198.77 177.64,198.77 253.39,198.77 
		314.4,198.77 439.76,198.77 489.73,198.77 489.73,138.54 	"/>
	<polygon points="206.5,324.63 206.5,615.29 146.26,615.29 146.26,198.77 146.26,138.54 146.26,112.91 206.5,112.91 206.5,138.54 
		206.5,198.77 206.5,269.85 	"/>
</g>
<path class="st1" d="M433.8,280.32c-26.97,0-48.83,25.15-48.83,56.18v57.37l-30.48,40.02c-2.15-1.91-5.33-2.15-7.54-0.39
	c-2.5,1.98-2.82,5.73-0.72,8.37c0.1,0.13,0.22,0.22,0.33,0.34c-1.06,2.02-0.86,4.63,0.72,6.62c2.1,2.64,5.82,3.18,8.32,1.2
	c0.8-0.63,1.34-1.45,1.69-2.35c1.97,0.93,4.3,0.8,6.04-0.58c2.5-1.98,2.82-5.73,0.72-8.37c-0.77-0.97-1.77-1.64-2.84-2.02
	l23.75-31.19v84.75h21.92V336.5c0-26.68,16.16-49.01,37.84-54.75C441.21,280.83,437.55,280.32,433.8,280.32z"/>
<path class="st0" d="M430.75,315.78c14.7-3.36,21.63-6.72,21.37-3.36"/>
<path class="st0" d="M463.17,311.03c18.47,6.99,23-3.83,18.47,6.99"/>
<ellipse class="st0" cx="445.05" cy="323.99" rx="3.61" ry="4.29"/>
<ellipse class="st0" cx="472.64" cy="322.92" rx="3.25" ry="3.22"/>
<path class="st0" d="M435.14,365.24c0,0,20.86-19.16,45.74-9.21"/>
</svg>
